<?xml version="1.0" encoding="UTF-8" standalone="no"?>
<!DOCTYPE svg PUBLIC "-//W3C//DTD SVG 1.1//EN"
"http://www.w3.org/Graphics/SVG/1.1/DTD/svg11.dtd">
<svg viewBox="0 0 935 1210" version="1.1" xmlns="http://www.w3.org/2000/svg" xmlns:xlink="http://www.w3.org/1999/xlink">
<defs>
<style type="text/css"><![CDATA[
.g2_23{
fill: none;
stroke: #000000;
stroke-width: 1;
stroke-linecap: butt;
stroke-linejoin: miter;
}
.g1_23{
fill: none;
stroke: #717073;
stroke-width: 1;
stroke-linecap: butt;
stroke-linejoin: miter;
}
]]></style>
</defs>
<path d="M80.5,94.5l768,0" class="g1_23" />
<image x="769" y="55" width="77" height="38" xlink:href="img/1.png" />
<path d="M234.5,341.5l0,-1" class="g2_23" />
<path d="M234.5,374.5l0,-33" class="g2_23" />
<path d="M82.5,375.5l152,0" class="g2_23" />
<path d="M234.5,376.5l0,-2" class="g2_23" />
<path d="M235.5,375.5l597,0" class="g2_23" />
<path d="M234.5,455.5l0,-79" class="g2_23" />
<path d="M82.5,456.5l152,0" class="g2_23" />
<path d="M234.5,457.5l0,-2" class="g2_23" />
<path d="M235.5,456.5l597,0" class="g2_23" />
<path d="M234.5,573.5l0,-116" class="g2_23" />
<path d="M82.5,574.5l152,0" class="g2_23" />
<path d="M234.5,575.5l0,-2" class="g2_23" />
<path d="M235.5,574.5l597,0" class="g2_23" />
<path d="M234.5,631.5l0,-56" class="g2_23" />
<path d="M82.5,632.5l152,0" class="g2_23" />
<path d="M234.5,633.5l0,-2" class="g2_23" />
<path d="M235.5,632.5l597,0" class="g2_23" />
<path d="M234.5,689.5l0,-56" class="g2_23" />
<path d="M82.5,690.5l152,0" class="g2_23" />
<path d="M234.5,691.5l0,-2" class="g2_23" />
<path d="M235.5,690.5l597,0" class="g2_23" />
<path d="M234.5,724.5l0,-33" class="g2_23" />
<image x="514" y="541" width="19" height="19" xlink:href="img/2.png" />
<image x="550" y="576" width="19" height="19" xlink:href="img/3.png" />
<image x="550" y="692" width="19" height="19" xlink:href="img/4.png" />
<image x="450" y="869" width="19" height="19" xlink:href="img/5.png" />
<image x="591" y="741" width="231" height="144" xlink:href="img/6.png" />
</svg>