<?xml version="1.0" encoding="UTF-8" standalone="no"?>
<!DOCTYPE svg PUBLIC "-//W3C//DTD SVG 1.1//EN"
"http://www.w3.org/Graphics/SVG/1.1/DTD/svg11.dtd">
<svg viewBox="0 0 935 1210" version="1.1" xmlns="http://www.w3.org/2000/svg" xmlns:xlink="http://www.w3.org/1999/xlink">
<defs>
<style type="text/css"><![CDATA[
.g2_28{
fill: none;
stroke: #000000;
stroke-width: 1;
stroke-linecap: butt;
stroke-linejoin: miter;
}
.g1_28{
fill: none;
stroke: #717073;
stroke-width: 1;
stroke-linecap: butt;
stroke-linejoin: miter;
}
]]></style>
</defs>
<path d="M80.5,94.5l768,0" class="g1_28" />
<image x="769" y="55" width="77" height="38" xlink:href="img/1.png" />
<path d="M288.5,392.5l0,-41" class="g2_28" />
<path d="M82.5,393.5l206,0" class="g2_28" />
<path d="M288.5,393.5l0,-1" class="g2_28" />
<path d="M288.5,393.5l556,0" class="g2_28" />
<path d="M288.5,448.5l0,-55" class="g2_28" />
<path d="M82.5,449.5l206,0" class="g2_28" />
<path d="M288.5,449.5l0,-1" class="g2_28" />
<path d="M288.5,449.5l556,0" class="g2_28" />
<path d="M288.5,504.5l0,-55" class="g2_28" />
<path d="M82.5,504.5l206,0" class="g2_28" />
<path d="M288.5,504.5l556,0" class="g2_28" />
<path d="M288.5,536.5l0,-32" class="g2_28" />
<path d="M82.5,537.5l206,0" class="g2_28" />
<path d="M288.5,537.5l0,-1" class="g2_28" />
<path d="M288.5,537.5l556,0" class="g2_28" />
<path d="M288.5,569.5l0,-32" class="g2_28" />
<path d="M82.5,570.5l206,0" class="g2_28" />
<path d="M288.5,570.5l0,-1" class="g2_28" />
<path d="M288.5,570.5l556,0" class="g2_28" />
<path d="M288.5,625.5l0,-55" class="g2_28" />
<path d="M82.5,626.5l206,0" class="g2_28" />
<path d="M288.5,626.5l0,-1" class="g2_28" />
<path d="M288.5,626.5l556,0" class="g2_28" />
<path d="M288.5,681.5l0,-55" class="g2_28" />
<path d="M82.5,682.5l206,0" class="g2_28" />
<path d="M288.5,682.5l0,-1" class="g2_28" />
<path d="M288.5,682.5l556,0" class="g2_28" />
<path d="M288.5,714.5l0,-32" class="g2_28" />
</svg>