<?xml version="1.0" encoding="UTF-8" standalone="no"?>
<!DOCTYPE svg PUBLIC "-//W3C//DTD SVG 1.1//EN"
"http://www.w3.org/Graphics/SVG/1.1/DTD/svg11.dtd">
<svg viewBox="0 0 935 1210" version="1.1" xmlns="http://www.w3.org/2000/svg" xmlns:xlink="http://www.w3.org/1999/xlink">
<defs>
<style type="text/css"><![CDATA[
.g2_30{
fill: none;
stroke: #000000;
stroke-width: 1;
stroke-linecap: butt;
stroke-linejoin: miter;
}
.g1_30{
fill: none;
stroke: #717073;
stroke-width: 1;
stroke-linecap: butt;
stroke-linejoin: miter;
}
]]></style>
</defs>
<path d="M80.5,94.5l768,0" class="g1_30" />
<image x="769" y="55" width="77" height="38" xlink:href="img/1.png" />
<path d="M336.5,310.5l0,-35" class="g2_30" />
<path d="M82.5,311.5l254,0" class="g2_30" />
<path d="M336.5,311.5l0,-1" class="g2_30" />
<path d="M337.5,311.5l514,0" class="g2_30" />
<path d="M851.5,311.5l0,-1" class="g2_30" />
<path d="M852.5,311.5l0,-1" class="g2_30" />
<path d="M853.5,311.5l0,-1" class="g2_30" />
<path d="M853.5,311.5l5,0" class="g2_30" />
<path d="M336.5,343.5l0,-32" class="g2_30" />
<path d="M82.5,343.5l254,0" class="g2_30" />
<path d="M337.5,343.5l521,0" class="g2_30" />
<path d="M336.5,399.5l0,-56" class="g2_30" />
<image x="538" y="593" width="293" height="180" xlink:href="img/2.png" />
</svg>