<?xml version="1.0" encoding="UTF-8" standalone="no"?>
<!DOCTYPE svg PUBLIC "-//W3C//DTD SVG 1.1//EN"
"http://www.w3.org/Graphics/SVG/1.1/DTD/svg11.dtd">
<svg viewBox="0 0 935 1210" version="1.1" xmlns="http://www.w3.org/2000/svg" xmlns:xlink="http://www.w3.org/1999/xlink">
<defs>
<style type="text/css"><![CDATA[
.g2_72{
fill: none;
stroke: #000000;
stroke-width: 1;
stroke-linecap: butt;
stroke-linejoin: miter;
}
.g1_72{
fill: none;
stroke: #717073;
stroke-width: 1;
stroke-linecap: butt;
stroke-linejoin: miter;
}
]]></style>
</defs>
<path d="M80.5,94.5l768,0" class="g1_72" />
<image x="769" y="55" width="77" height="38" xlink:href="img/1.png" />
<path d="M348.5,787.5l0,-48" class="g2_72" />
<path d="M83.5,787.5l265,0" class="g2_72" />
<path d="M349.5,787.5l489,0" class="g2_72" />
<path d="M348.5,835.5l0,-48" class="g2_72" />
<path d="M83.5,836.5l265,0" class="g2_72" />
<path d="M348.5,836.5l0,-1" class="g2_72" />
<path d="M349.5,836.5l489,0" class="g2_72" />
<path d="M348.5,891.5l0,-55" class="g2_72" />
<path d="M83.5,891.5l265,0" class="g2_72" />
<path d="M349.5,891.5l489,0" class="g2_72" />
<path d="M348.5,939.5l0,-48" class="g2_72" />
<path d="M83.5,940.5l265,0" class="g2_72" />
<path d="M348.5,940.5l0,-1" class="g2_72" />
<path d="M349.5,940.5l489,0" class="g2_72" />
<path d="M348.5,987.5l0,-47" class="g2_72" />
<path d="M83.5,988.5l265,0" class="g2_72" />
<path d="M348.5,988.5l0,-1" class="g2_72" />
<path d="M349.5,988.5l489,0" class="g2_72" />
<path d="M82.5,1043.5l266,0" class="g2_72" />
<path d="M348.5,1043.5l0,-55" class="g2_72" />
<path d="M349.5,1043.5l489,0" class="g2_72" />
<image x="82" y="341" width="694" height="390" xlink:href="img/2.png" />
</svg>