<?xml version="1.0" encoding="UTF-8" standalone="no"?>
<!DOCTYPE svg PUBLIC "-//W3C//DTD SVG 1.1//EN"
"http://www.w3.org/Graphics/SVG/1.1/DTD/svg11.dtd">
<svg viewBox="0 0 935 1210" version="1.1" xmlns="http://www.w3.org/2000/svg" xmlns:xlink="http://www.w3.org/1999/xlink">
<defs>
<style type="text/css"><![CDATA[
.g2_31{
fill: none;
stroke: #000000;
stroke-width: 1;
stroke-linecap: butt;
stroke-linejoin: miter;
}
.g1_31{
fill: none;
stroke: #717073;
stroke-width: 1;
stroke-linecap: butt;
stroke-linejoin: miter;
}
]]></style>
</defs>
<path d="M80.5,94.5l768,0" class="g1_31" />
<image x="769" y="55" width="77" height="38" xlink:href="img/1.png" />
<path d="M425.5,297.5l0,-41" class="g2_31" />
<path d="M82.5,298.5l343,0" class="g2_31" />
<path d="M425.5,298.5l0,-1" class="g2_31" />
<path d="M426.5,298.5l406,0" class="g2_31" />
<path d="M425.5,353.5l0,-55" class="g2_31" />
<path d="M82.5,354.5l343,0" class="g2_31" />
<path d="M425.5,354.5l0,-1" class="g2_31" />
<path d="M426.5,354.5l406,0" class="g2_31" />
<path d="M425.5,386.5l0,-32" class="g2_31" />
<path d="M82.5,387.5l343,0" class="g2_31" />
<path d="M425.5,387.5l0,-1" class="g2_31" />
<path d="M426.5,387.5l406,0" class="g2_31" />
<path d="M425.5,419.5l0,-32" class="g2_31" />
<path d="M82.5,420.5l343,0" class="g2_31" />
<path d="M425.5,420.5l0,-1" class="g2_31" />
<path d="M426.5,420.5l406,0" class="g2_31" />
<path d="M425.5,452.5l0,-32" class="g2_31" />
<path d="M82.5,846.5l117,0" class="g2_31" />
<path d="M200.5,846.5l164,0" class="g2_31" />
<path d="M365.5,846.5l130,0" class="g2_31" />
<path d="M495.5,846.5l165,0" class="g2_31" />
<path d="M660.5,846.5l172,0" class="g2_31" />
<image x="293" y="530" width="34" height="34" xlink:href="img/2.png" />
<image x="693" y="207" width="136" height="47" xlink:href="img/3.png" />
</svg>